<svg viewBox="0 0 61 61" xmlns="http://www.w3.org/2000/svg" xmlns:xlink="http://www.w3.org/1999/xlink" width="61.000000" height="61.000000" fill="none" customFrame="#000000">
	<g id="Group" opacity="0.200000003">
		<path id="Vector" d="M60.5 30.4351C60.5 13.8703 47.1297 0.5 30.5649 0.5C13.9351 0.5 0.5 13.8703 0.5 30.4351C0.5 47.0649 13.9351 60.5 30.5649 60.5C47.1297 60.5 60.5 47.0649 60.5 30.4351ZM30.5649 60.5L30.5649 0.5M56.5303 15.5L4.48919 15.5M56.6973 45.1351L4.32216 45.1351M0.662162 30.5L60.3378 30.5" fill-rule="nonzero" stroke="rgb(255,255,255)" stroke-linecap="round" stroke-linejoin="round" stroke-width="1.000000" />
		<path id="Vector" d="M45.5 30.4351C45.5 13.8703 38.8157 0.5 30.5324 0.5C22.2168 0.5 15.5 13.8703 15.5 30.4351C15.5 47.0649 22.2168 60.5 30.5324 60.5C38.8157 60.5 45.5 47.0649 45.5 30.4351Z" fill-rule="nonzero" stroke="rgb(255,255,255)" stroke-linecap="round" stroke-linejoin="round" stroke-width="1.000000" />
	</g>
</svg>
