<svg viewBox="0 0 16 16" xmlns="http://www.w3.org/2000/svg" xmlns:xlink="http://www.w3.org/1999/xlink" width="16.000000" height="16.000000" fill="none">
	<rect id="twemoji:diamond-with-a-dot" width="16.000000" height="16.000000" x="0.000000" y="0.000000" fill="rgb(255,255,255)" fill-opacity="0" />
	<path id="Vector" d="M7.4964 6.99282C7.77418 7.27104 8.22529 7.27104 8.50351 6.99282L11.2733 4.22349C11.4067 4.08984 11.4816 3.90874 11.4816 3.71993C11.4816 3.53112 11.4067 3.35002 11.2733 3.21638L8.50351 0.447042C8.43745 0.380792 8.35897 0.328228 8.27256 0.292363C8.18615 0.256499 8.09351 0.238037 7.99995 0.238037C7.9064 0.238037 7.81376 0.256499 7.72735 0.292363C7.64094 0.328228 7.56246 0.380792 7.4964 0.447042L4.72662 3.21638C4.66037 3.28243 4.60781 3.36092 4.57194 3.44733C4.53608 3.53374 4.51761 3.62637 4.51761 3.71993C4.51761 3.81349 4.53608 3.90613 4.57194 3.99253C4.60781 4.07894 4.66037 4.15743 4.72662 4.22349L7.4964 6.99282ZM11.7768 11.2728C12.0546 11.551 12.5057 11.551 12.784 11.2728L15.5537 8.50349C15.6871 8.36984 15.762 8.18874 15.762 7.99993C15.762 7.81112 15.6871 7.63002 15.5537 7.49638L12.784 4.72704C12.7179 4.66079 12.6394 4.60823 12.553 4.57236C12.4666 4.5365 12.374 4.51804 12.2804 4.51804C12.1868 4.51804 12.0942 4.5365 12.0078 4.57236C11.9214 4.60823 11.8429 4.66079 11.7768 4.72704L9.00706 7.49638C8.94081 7.56243 8.88825 7.64092 8.85238 7.72733C8.81652 7.81374 8.79806 7.90637 8.79806 7.99993C8.79806 8.09349 8.81652 8.18612 8.85238 8.27253C8.88825 8.35894 8.94081 8.43743 9.00706 8.50349L11.7768 11.2728ZM11.2728 11.7768L8.50351 9.00704C8.43745 8.94079 8.35897 8.88823 8.27256 8.85236C8.18615 8.8165 8.09351 8.79804 7.99995 8.79804C7.9064 8.79804 7.81376 8.8165 7.72735 8.85236C7.64094 8.88823 7.56246 8.94079 7.4964 9.00704L4.72706 11.7768C4.66088 11.8429 4.60837 11.9213 4.57255 12.0077C4.53672 12.0941 4.51828 12.1866 4.51828 12.2802C4.51828 12.3737 4.53672 12.4662 4.57255 12.5526C4.60837 12.639 4.66088 12.7174 4.72706 12.7835L7.4964 15.5533C7.77462 15.831 8.22529 15.831 8.50351 15.5533L11.2728 12.7835C11.339 12.7174 11.3915 12.639 11.4274 12.5526C11.4632 12.4662 11.4816 12.3737 11.4816 12.2802C11.4816 12.1866 11.4632 12.0941 11.4274 12.0077C11.3915 11.9213 11.339 11.8429 11.2728 11.7768ZM6.99284 7.49682L4.22351 4.72704C4.15745 4.66079 4.07897 4.60823 3.99256 4.57236C3.90615 4.5365 3.81351 4.51804 3.71995 4.51804C3.6264 4.51804 3.53376 4.5365 3.44735 4.57236C3.36094 4.60823 3.28246 4.66079 3.2164 4.72704L0.447063 7.49682C0.38088 7.56287 0.328373 7.64133 0.292547 7.72769C0.256722 7.81406 0.238281 7.90665 0.238281 8.00015C0.238281 8.09366 0.256722 8.18624 0.292547 8.27261C0.328373 8.35898 0.38088 8.43743 0.447063 8.50349L3.2164 11.2733C3.49462 11.551 3.94529 11.551 4.22351 11.2733L6.99284 8.50349C7.05902 8.43743 7.11153 8.35898 7.14736 8.27261C7.18318 8.18624 7.20162 8.09366 7.20162 8.00015C7.20162 7.90665 7.18318 7.81406 7.14736 7.72769C7.11153 7.64133 7.05902 7.56287 6.99284 7.49682Z" fill="rgb(85,172,238)" fill-rule="nonzero" />
	<path id="Vector" d="M6.99267 7.49692L5.56423 6.06803C5.12666 6.61689 4.88846 7.29809 4.88867 8.00003C4.88867 8.73069 5.14245 9.40136 5.56423 9.93203L6.99267 8.50358C7.05886 8.43753 7.11136 8.35908 7.14719 8.27271C7.18301 8.18634 7.20145 8.09375 7.20145 8.00025C7.20145 7.90675 7.18301 7.81416 7.14719 7.72779C7.11136 7.64142 7.05886 7.56297 6.99267 7.49692ZM9.93223 10.4356L8.50334 9.00669C8.36963 8.87344 8.18856 8.79861 7.99978 8.79861C7.81101 8.79861 7.62993 8.87344 7.49623 9.00669L6.06734 10.4356C6.61632 10.8733 7.29769 11.1114 7.99978 11.1111C8.70187 11.1114 9.38325 10.8733 9.93223 10.4356ZM9.0069 8.50358L10.4358 9.93247C10.8733 9.38343 11.1113 8.70207 11.1109 8.00003C11.1115 7.29803 10.8732 6.61672 10.4353 6.06803L9.00645 7.49692C8.87317 7.63055 8.79836 7.81161 8.79844 8.00034C8.79853 8.18908 8.8735 8.37007 9.0069 8.50358ZM8.50334 6.99292L9.93223 5.56447C9.38325 5.12681 8.70187 4.88861 7.99978 4.88892C7.29778 4.88836 6.61647 5.12659 6.06778 5.56447L7.49667 6.99292C7.56272 7.0591 7.64118 7.11161 7.72755 7.14743C7.81392 7.18326 7.9065 7.2017 8.00001 7.2017C8.09351 7.2017 8.1861 7.18326 8.27246 7.14743C8.35883 7.11161 8.43729 7.0591 8.50334 6.99292Z" fill="rgb(59,136,195)" fill-rule="nonzero" />
	<path id="Vector" d="M7.99957 10.2223C9.22687 10.2223 10.2218 9.22735 10.2218 8.00005C10.2218 6.77275 9.22687 5.77783 7.99957 5.77783C6.77227 5.77783 5.77734 6.77275 5.77734 8.00005C5.77734 9.22735 6.77227 10.2223 7.99957 10.2223Z" fill="rgb(187,221,245)" fill-rule="evenodd" />
</svg>
